<?xml version="1.0" encoding="utf-8"?>
<!-- Generator: Adobe Illustrator 19.0.0, SVG Export Plug-In . SVG Version: 6.00 Build 0)  -->
<svg version="1.1" id="Layer_1" xmlns="http://www.w3.org/2000/svg" xmlns:xlink="http://www.w3.org/1999/xlink" x="0px" y="0px"
	 width="165px" height="71px" viewBox="0 0 165 71" style="enable-background:new 0 0 165 71;" xml:space="preserve">
<style type="text/css">
	.st0{fill:#8154A1;}
	.st1{fill:#25783C;}
	.st2{fill-rule:evenodd;clip-rule:evenodd;fill:#D0D2D3;}
</style>
<g id="XMLID_27_">
	<g id="XMLID_567_">
		<path id="XMLID_583_" class="st0" d="M1.7,46.6h16.9l0.3,5h-0.2l-1.1-4c-1.2-0.1-2.1-0.1-2.9-0.1c-2,0-3.7,0.2-5,0.5
			c-0.1,0.7-0.2,1.7-0.2,3c-0.1,1.3-0.1,2.2-0.1,2.9c0,0.7,0,1.8,0.1,3.2c1,0.1,2.1,0.2,3.4,0.2c1.4,0,2.5-0.1,3.4-0.2l0.8-2.7h0.2
			v6.8H17l-0.8-2.9c-0.6-0.1-1.2-0.1-1.7-0.1c-0.6,0-1.1,0-1.7,0c-0.6,0-1.7,0.1-3.4,0.2c-0.1,1.1-0.1,2.2-0.1,3.4
			c0,0.8,0,2,0.1,3.6c0.1,1.6,0.2,2.8,0.3,3.7l3.9,0.6v0.2H1.7v-0.2L5.5,69c0.2-1.1,0.3-2.6,0.4-4.5C5.9,62.7,6,61.1,6,59.9v-4.4
			c0-0.5,0-1.4-0.1-2.4c0-1.1-0.1-2.1-0.1-3.1c-0.1-1-0.1-1.9-0.3-2.5l-3.9-0.6V46.6z"/>
		<path id="XMLID_581_" class="st0" d="M21.2,46.8v-0.2h11.9v0.2l-3.9,0.6c-0.1,1-0.3,2.4-0.3,4.1c-0.1,1.7-0.1,3.2-0.1,4.5v6.8
			c0,1.6,0.1,3.3,0.3,5.1c1.8,0.6,3.7,0.9,5.6,0.9c0.9,0,1.8-0.1,2.6-0.2c0.8-0.1,1.3-0.2,1.6-0.3l1.6-4.3h0.2l-0.7,5.8H21.2v-0.2
			L25,69c0.1-0.5,0.2-1.4,0.3-2.7c0.1-1.3,0.2-2.6,0.2-4c0.1-1.4,0.1-2.4,0.1-2.9v-4c0-0.9,0-1.9-0.1-3c0-1.1-0.1-2.1-0.1-3
			c-0.1-0.9-0.1-1.6-0.2-2.1L21.2,46.8z"/>
		<path id="XMLID_578_" class="st0" d="M55.8,46.3c2.2,0,4.2,0.4,5.8,1.1c1.6,0.7,3,1.7,4,2.9c1,1.2,1.8,2.5,2.3,3.9
			c0.5,1.4,0.7,2.7,0.7,3.9c0,1.4-0.3,2.8-0.8,4.2c-0.6,1.4-1.4,2.6-2.4,3.8c-1.1,1.1-2.4,2.1-4,2.7c-1.6,0.7-3.4,1-5.3,1
			c-2.8,0-5.2-0.6-7.2-1.8c-2-1.2-3.4-2.7-4.4-4.6c-0.9-1.8-1.4-3.6-1.4-5.3c0-1.5,0.3-3,0.9-4.4c0.6-1.4,1.5-2.7,2.6-3.8
			c1.1-1.1,2.5-2,4.1-2.7C52.2,46.6,53.9,46.3,55.8,46.3z M55.9,47.4c-1.6,0-3.1,0.4-4.5,1.3c-1.4,0.9-2.5,2.1-3.3,3.7
			c-0.8,1.6-1.2,3.5-1.2,5.7c0,2.4,0.4,4.4,1.3,6c0.9,1.6,2,2.8,3.4,3.6c1.4,0.8,2.8,1.2,4.3,1.2c1.2,0,2.4-0.2,3.4-0.7
			c1.1-0.5,2.1-1.1,2.9-2c0.9-0.9,1.5-2,2-3.3c0.5-1.3,0.7-2.8,0.7-4.4c0-2.2-0.3-3.9-0.8-5.2c-0.5-1.3-1.2-2.4-2.2-3.4
			c-0.8-0.8-1.8-1.4-2.8-1.8C58.1,47.6,57,47.4,55.9,47.4z"/>
		<path id="XMLID_575_" class="st0" d="M74.1,60.3v-4.9c0-1.3,0-2.7-0.1-4.3c-0.1-1.6-0.2-2.9-0.3-3.8l-3.8-0.6v-0.2h10.4
			c2,0,3.5,0.4,4.7,1.2c1.2,0.8,2,1.7,2.4,2.7c0.5,1,0.7,1.9,0.7,2.6c0,1-0.2,1.9-0.7,2.7c-0.5,0.8-1,1.4-1.8,1.9
			c-0.7,0.5-1.5,0.7-2.2,0.8v0.1c0.7,0.3,1.3,0.7,1.8,1.1c0.4,0.4,0.8,0.9,1.3,1.6c0.5,0.7,1.1,1.6,1.9,2.7c0.8,1.2,1.4,2.1,1.9,2.7
			c0.5,0.7,0.9,1.2,1.3,1.6c0.9,0.9,1.8,1.3,2.6,1.3v0.2h-2.7c-1.5,0-2.8-0.5-3.7-1.4c-0.4-0.4-0.7-0.8-1.1-1.3
			c-0.4-0.5-0.9-1.3-1.7-2.4c-0.8-1.1-1.4-2-1.9-2.8c-0.5-0.7-0.9-1.2-1.2-1.5c-0.5-0.5-0.9-0.8-1.2-0.9c-0.4-0.2-0.9-0.2-1.6-0.2
			c-0.7,0-1.2,0-1.5,0.1c-0.1,0.6-0.1,1.2-0.1,1.9v2.9c0,1.2,0.1,2.9,0.4,4.9l3.9,0.6v0.2H69.8v-0.2l3.7-0.6
			c0.2-1.1,0.3-2.6,0.4-4.5C74,62.6,74.1,61.2,74.1,60.3z M77.2,53.1v2.6c0,0.9,0,1.8,0.1,2.6c0.4,0.1,1,0.1,1.8,0.1
			c1.3,0,2.4-0.2,3.3-0.7c0.8-0.5,1.4-1.1,1.8-1.8c0.4-0.7,0.5-1.6,0.5-2.4c0-0.9-0.2-1.7-0.5-2.4c-0.3-0.7-0.8-1.4-1.3-1.9
			c-0.5-0.5-1.1-0.9-1.8-1.2c-0.7-0.3-1.3-0.4-2-0.4c-0.6,0-1.1,0-1.4,0.1c-0.1,0.6-0.2,1.5-0.3,2.6C77.2,51.4,77.2,52.4,77.2,53.1z
			"/>
		<path id="XMLID_573_" class="st0" d="M107.4,69.8H95.5v-0.2l3.9-0.6c0.2-1.3,0.3-2.9,0.4-4.8c0.1-1.9,0.1-3.7,0.1-5.5v-2.7
			c0-3.6-0.2-6.5-0.5-8.8l-3.9-0.6v-0.2h11.9v0.2l-3.9,0.6c-0.1,1-0.2,1.9-0.3,2.8c-0.1,0.8-0.1,1.8-0.1,3c0,1.2-0.1,2.3-0.1,3.3
			v3.5c0,0.6,0,1.7,0.1,3.2c0,1.5,0.1,2.7,0.2,3.7c0.1,1,0.2,1.8,0.2,2.3l3.9,0.6V69.8z"/>
		<path id="XMLID_571_" class="st0" d="M109.2,46.8v-0.2h8c0.5,0.7,1.2,1.6,2,2.6c0.8,1,1.6,1.9,2.2,2.6l7.1,7.9
			c0.9,1,1.7,1.8,2.2,2.4c0.5,0.6,1.2,1.2,2,2c0.1-0.7,0.1-1.4,0.1-2c0-0.6,0-1.2,0-1.8v-6.8c0-2.5-0.1-4.5-0.4-6.1l-3.8-0.6v-0.2
			h9.4v0.2l-3.8,0.6c-0.2,1.5-0.3,3.4-0.3,5.7v17.3h-0.2c-1.6-2-3.2-4-4.8-5.7l-9.7-10.8c-1.4-1.5-2.7-2.7-3.7-3.6
			c-0.1,1.4-0.2,2.8-0.2,4v10c0,1.3,0.1,2.9,0.3,4.8l4,0.6v0.2h-9.6v-0.2l3.9-0.6c0.1-0.8,0.2-1.8,0.3-3.2c0.1-1.4,0.1-2.6,0.1-3.7
			v-7.7c0-0.9,0-1.8,0-2.7c0-0.9-0.1-1.8-0.2-2.7l-2.1-1.5L109.2,46.8z"/>
		<path id="XMLID_568_" class="st0" d="M150.8,46.4l6.8,16.3c0.9,2.1,1.9,4.2,3.1,6.3l2.6,0.6v0.2h-11.1v-0.2l4.3-0.6
			c-0.2-1-0.5-2.2-0.9-3.4c-0.4-1.2-0.9-2.3-1.4-3.2h-9.9c-0.4,1.1-0.8,1.9-1,2.6c-0.3,0.7-0.5,1.4-0.7,2.1
			c-0.2,0.7-0.4,1.4-0.5,1.8l4.1,0.6v0.2h-8.8v-0.2l2.9-0.6c0.7-1.2,1.4-2.6,1.9-4l7.3-18.6H150.8z M149.1,50.8
			c-0.3,0.6-0.7,1.4-1.1,2.4c-0.5,1.1-0.9,2.1-1.3,3c-0.4,0.9-0.8,1.9-1.2,3c-0.4,1.1-0.7,1.8-0.8,2.1c0.6,0.1,1.3,0.1,2.2,0.2
			c0.8,0,1.6,0,2.4,0c1.8,0,3.4-0.1,4.5-0.2c-0.4-1.2-1.1-2.9-2-5.1C150.8,54.1,149.9,52.3,149.1,50.8z"/>
	</g>
	<g id="XMLID_30_">
		<g id="XMLID_478_">
			<g id="XMLID_296_">
				<path id="XMLID_297_" class="st1" d="M47,23.9c-0.2,0.5-0.5,1-0.9,1.4c0,0,0,0,0,0c0.2-0.4,0.4-0.7,0.6-1.2
					c0.2-0.5,0.3-0.9,0.3-1.3c-0.2,0-0.5,0.1-0.7,0.1c0,0.3-0.4,0.7-0.5,1c-0.3,0.5-0.6,1-1.1,1.4c0,0,0,0,0,0
					c0.4-0.4,0.7-1,0.9-1.5c0.1-0.2,0.3-0.5,0.4-0.8c-0.3,0.1-0.5,0.2-0.8,0.2c0,0,0,0,0,0c-0.2,0.4-0.4,0.6-0.7,0.9
					c-0.3,0.3-0.5,0.5-0.9,0.6c0,0,0,0,0,0c0.5-0.3,1.1-0.9,1.3-1.4c0,0-0.1,0-0.1,0c-0.4,0.1-0.8,0.3-1.2,0.5
					c-0.2,0.3-0.7,0.5-1,0.7c0,0,0,0,0,0c0.2-0.1,0.4-0.3,0.6-0.5c-0.4,0.1-0.8,0.3-1.2,0.3c0,0,0,0,0,0c0.6,0,1.1-0.4,1.7-0.7
					c-0.1-0.1-0.1-0.2-0.2-0.3c-0.1-0.1-0.2-0.1-0.3-0.2c0,0,0,0,0,0c0.3,0.1,0.5,0.2,0.8,0.4c0,0,0,0,0,0c0.2-0.1,0.4-0.2,0.7-0.3
					c0,0,0,0,0-0.1c-0.1-0.3-0.4-0.4-0.5-0.6c0,0,0,0,0,0c0.2,0.1,0.3,0.1,0.4,0.2c0.2,0.1,0.3,0.2,0.4,0.3c0,0,0,0,0,0
					c0.2-0.1,0.4-0.2,0.7-0.3c-0.1-0.6-0.5-1.1-1.2-1.2c0,0,0,0,0,0c0.6-0.1,1.3,0.5,1.4,1.1c0.1-0.1,0.3-0.1,0.4-0.2
					c0.1,0,0.3-0.1,0.4-0.2c-0.3-0.6-1.1-1.1-1.8-1.2c0,0,0,0,0,0c0.5,0.1,0.9,0.2,1.3,0.4c0.3,0.2,0.6,0.4,0.8,0.7
					c0.1,0,0.3-0.1,0.4-0.1c0,0,0,0,0-0.1c-0.1-0.1-0.2-0.3-0.3-0.4c-0.2-0.2-0.5-0.5-0.8-0.6c0,0,0,0,0,0c0.3,0.2,0.6,0.3,0.9,0.5
					c0.1,0.1,0.4,0.3,0.4,0.6c0.2,0,0.4,0,0.6,0c0-0.2-0.1-0.4-0.3-0.6c-0.5-0.7-2.3-1.8-4.1,0.2c-0.4,0.5-0.8,1-1.2,1.5
					c-0.3,0.4-0.7,0.9-1.1,1.1c1.1,0.8,2.6,1.4,4,1.6c1.6,0.2,2.5-1.1,2.6-2.6c0-0.2,0-0.5,0-0.7c-0.2,0-0.4,0-0.6,0
					C47.3,23.2,47.2,23.5,47,23.9z M72.5,17.7c0.1,0.9,0.3,2.6,1.2,3.3c1.3,1.1,3.5,0.5,3.5,0.5s0.2-1.3-1-3.2
					c-1-1.6-2.9-1.4-3.5-1.3c0,0.1,0.3,0.4,0.6,0.8l2.2,0.5l-2-0.2c0.2,0.4,0.6,0.8,1,1.2l1.7,0.4l-1.5-0.1c0.6,0.6,1.2,1.1,1.8,1.5
					c-0.2-0.1-1.4-0.8-2.4-1.7l0.5,1.5l-1-1.9C73.1,18.5,72.7,18.1,72.5,17.7z M87.6,16.3l0.1-1.7c-3.1-1.3-6.2-2.5-10.3-1.5
					c-0.4-0.7-1.1-1.7-2-1.9c-1.4-0.3-2.9,0.8-2.9,0.8s0.3,1.1,1.9,2c0.1,0.1,0.2,0.1,0.2,0.1c-0.1,0.1-0.2,0.1-0.3,0.2
					C72.7,15,71.2,17,71,18.7c-0.9,0.4-2.7,1.3-2.5,3.4c0.2,2.7,1.6,4.1,1.6,4.1s2.8-0.6,3.4-2.6c0.4-1.3-0.7-3.2-1.4-4.3
					c0.1,0.6,0,1.3-0.2,2l0.4,2.6l-0.6-1.9c-0.5,1.5-1.1,3-1.3,3.2c0.3-0.7,0.6-1.7,0.7-2.6l-1.5,1l1.5-1.4c0.2-0.6,0.3-1.3,0.2-1.9
					l-2,1.4l2-1.9l0,0l0,0c0,0,0-0.1,0-0.1c0-0.6,0-1,0-1.1l0,0c0.2-1.6,1.7-2.9,3.2-3.6c2.6-1.3,5.2-1.4,7.3-1.2
					c-0.1,0.1-0.2,0.1-0.3,0.2c-1.2,0.8-0.6,2.5-0.6,2.5c0.2-1.3,1.4-2.1,2.2-2.5C85.6,14.6,87.4,15.7,87.6,16.3z M76.2,13.4
					l-1.2,0.2l1.6-0.5c-0.3-0.2-0.7-0.4-1.2-0.5L73.9,13l1.2-0.4c-0.6-0.2-1.3-0.4-1.9-0.5c0.2,0,1.3,0.1,2.4,0.4l-0.9-0.9l1.4,1
					c0.5,0.1,0.9,0.3,1.2,0.5C77,13.2,76.6,13.3,76.2,13.4z M71.2,17.1l-0.2,0c-0.8,0-1.4,0.5-1.7,1.2c0.3-0.8,0.7-1.1,1-1.2
					c-1,0-2.2-0.3-2.9,0.5c0.2-0.4,0.6-0.6,0.9-0.6c-0.8-0.2-2.1-0.6-2.1-0.6s0.5,0.1,1.5,0.2c-0.2-0.1-0.4-0.3-0.5-0.7
					c0.2,0.3,0.5,0.6,0.8,0.7c0.1,0,0.2,0,0.3,0c0.2,0,0.4,0,0.6,0.1c-0.3-0.1-0.7-0.4-1.1-1c0.7,0.9,1.5,1,2.4,1
					c-0.4-0.2-1-0.5-1.6-1.6c0.4,0.7,1.4,1.4,2.1,1.5c0.2,0,0.4,0,0.5,0c-0.2-0.9-1.2-1.6-2.4-1.7c-1-0.1-2,0.2-2.4,1
					c-0.1,0.2-0.4,0.3-0.6,0.3c0,0,0.3,0.1,0.4,0.3c0.4,1,1.3,1.7,2.5,1.8C69.9,18.5,71,18,71.2,17.1z M105.9,12.6
					c-0.7,0.5-1.5,0.9-2.2,1.4c-3,2.2-1.6,4.9-0.7,5.6c0.3,0.2,0.6,0.4,0.9,0.4c0-0.3,0-0.5,0.1-0.8c-0.3-0.1-0.6-0.4-0.7-0.6
					c-0.3-0.4-0.4-0.8-0.6-1.3c0,0,0,0,0,0c0.1,0.4,0.5,0.8,0.7,1.1c0.2,0.2,0.3,0.3,0.5,0.4c0,0,0.1,0,0.1,0
					c0.1-0.2,0.1-0.4,0.2-0.6c-0.4-0.2-0.7-0.8-0.9-1.2c-0.3-0.6-0.4-1.2-0.4-1.8c0,0,0,0,0,0c0,0.9,0.7,2,1.4,2.6
					c0.1-0.2,0.2-0.4,0.3-0.6c0.1-0.2,0.2-0.4,0.3-0.6c-0.8-0.2-1.5-1.2-1.3-2c0,0,0,0,0,0c0,0.9,0.6,1.6,1.5,1.7
					c0.1-0.3,0.3-0.6,0.4-0.9c0,0,0,0,0,0c-0.2-0.1-0.3-0.3-0.4-0.6c-0.1-0.2-0.2-0.4-0.2-0.6c0,0,0,0,0,0c0.2,0.3,0.4,0.7,0.8,0.8
					c0,0,0.1,0,0.1,0c0.2-0.3,0.3-0.6,0.5-0.9c0,0,0,0,0,0c-0.2-0.3-0.4-0.7-0.4-1.1c0,0,0,0,0,0c0.1,0.2,0.1,0.4,0.2,0.5
					c0.1,0.1,0.2,0.2,0.3,0.3c0.4-0.7,1-1.4,1.1-2.2c0,0,0,0,0,0c-0.1,0.6-0.3,1.1-0.5,1.6c0.3-0.2,0.6-0.4,0.8-0.7c0,0,0,0,0,0
					c-0.3,0.4-0.6,1-1.1,1.3c-0.3,0.6-0.6,1.1-0.8,1.6c0,0.1-0.1,0.1-0.1,0.2c0.8-0.3,1.7-0.9,2.1-1.6c0,0,0,0,0,0
					c-0.2,0.5-0.6,0.8-1,1.1c-0.5,0.4-0.8,0.7-1.3,0.9c0,0,0,0,0,0c-0.2,0.3-0.3,0.7-0.4,1c0.4-0.1,0.8-0.2,1.2-0.4
					c0.7-0.3,1.5-0.6,2.2-1.1c0,0,0,0,0,0c-0.6,0.6-1.3,1-2.1,1.4c-0.4,0.2-0.9,0.6-1.4,0.6c-0.1,0.3-0.2,0.6-0.3,1
					c0.7,0.1,1.2,0,1.9-0.2c0.6-0.2,1.1-0.5,1.7-0.7c0,0,0,0,0,0c-0.6,0.6-1.3,0.9-2,1.1c-0.6,0.2-1.1,0.3-1.7,0.3
					c0,0.3-0.1,0.6-0.1,0.9c0.3,0,0.6,0,0.9,0c2.1,0,4-1,3.9-3.3c-0.1-2-0.8-4.2-1.8-5.7C107.2,11.7,106.4,12.2,105.9,12.6z
					 M89.7,27.7L88.4,32l0.7-3.9c-0.8,0.2-1.5,0.8-2.2,1.5L86,32.9l0.4-2.9c-1.1,0.9-2.1,1.9-2.8,2.9c0.2-0.4,1.6-2.4,3.3-4.2
					l-2.7,0.4l3.4-1.1c0.8-0.8,1.7-1.5,2.4-1.8c-1.6-0.4-4.4-0.7-5.9,0.8c-2.1,2.2-1.4,6.9-1.4,6.9s2.3,1.1,5.7-0.4
					c2.9-1.3,2.9-5.4,2.8-6.6C91,26.9,90.4,27.2,89.7,27.7z M96,27.2c-0.2-0.1-0.5-0.2-0.7-0.3c-0.1,0.2-0.2,0.4-0.2,0.6
					c0.4,0.2,0.8,0.4,1.1,0.8c0.5,0.4,0.9,0.9,1.1,1.5c0,0,0,0,0,0c-0.3-0.4-0.6-0.7-1-1.1c-0.4-0.3-0.8-0.6-1.3-0.8
					c-0.1,0.3-0.1,0.5-0.1,0.8c0.4,0.1,0.6,0.6,0.8,0.9c0.5,0.5,0.8,1,1,1.7c0,0,0,0,0,0c-0.3-0.6-0.7-1-1.2-1.5
					c-0.2-0.2-0.4-0.5-0.7-0.7c0,0.3,0,0.6,0,0.9c0,0,0,0,0,0c0.4,0.3,0.5,0.7,0.7,1.1c0.2,0.4,0.3,0.7,0.3,1.1c0,0,0,0,0,0
					c-0.1-0.6-0.5-1.4-1-1.9c0,0.1,0,0.1,0,0.2c0,0.5,0,1,0.1,1.5c0.3,0.3,0.3,0.9,0.3,1.3c0,0,0,0,0,0c0-0.3-0.2-0.5-0.3-0.8
					c0,0.5,0,0.9-0.1,1.4c0,0,0,0,0,0c0.2-0.6,0-1.3-0.1-2c-0.1,0-0.2,0.1-0.4,0.1c-0.1,0.1-0.2,0.2-0.3,0.3c0,0,0,0,0,0
					c0.2-0.2,0.4-0.5,0.7-0.6c0,0,0,0,0,0c0-0.3,0-0.5,0-0.8c0,0,0,0-0.1,0c-0.3,0-0.6,0.2-0.8,0.3c0,0,0,0,0,0
					c0.1-0.1,0.2-0.3,0.4-0.4c0.2-0.1,0.3-0.3,0.5-0.3c0,0,0,0,0,0c0-0.3,0-0.5,0-0.8c-0.7-0.2-1.3,0.1-1.6,0.8c0,0,0,0,0,0
					c0.2-0.6,1-1.1,1.6-1c0-0.2,0-0.3,0-0.5c0-0.1,0-0.3,0-0.5c-0.7,0.1-1.6,0.7-1.9,1.4c0,0,0,0,0,0c0.2-0.5,0.5-0.8,0.9-1.2
					c0.3-0.2,0.7-0.5,1-0.6c0-0.2,0-0.3,0-0.5c0,0-0.1,0-0.1,0c-0.2,0-0.3,0.1-0.5,0.1c-0.3,0.1-0.7,0.3-0.9,0.6c0,0,0,0,0,0
					c0.3-0.3,0.5-0.5,0.8-0.7c0.2-0.1,0.5-0.2,0.7-0.2c0.1-0.2,0.1-0.4,0.2-0.6c-0.2,0-0.5,0-0.8,0c-0.9,0.2-2.7,1.7-1.3,4.3
					c0.3,0.6,0.7,1.2,1.1,1.8c0.3,0.4,0.7,1.1,0.7,1.6c1.3-0.8,2.5-2.2,3.2-3.5C98.5,29.2,97.5,27.8,96,27.2z M68,11.1
					c0-0.3,0-0.6-0.1-0.9c-0.6,0.1-1.1-0.1-1.7-0.3c-0.8-0.3-1.5-0.5-2-1.1c0,0,0,0,0,0c0.6,0.2,1.1,0.5,1.7,0.7
					c0.7,0.2,1.2,0.3,1.9,0.2c-0.1-0.3-0.2-0.6-0.3-1c-0.5,0-1-0.4-1.4-0.6c-0.8-0.4-1.5-0.8-2.1-1.4c0,0,0,0,0,0
					c0.6,0.5,1.4,0.8,2.2,1.1c0.3,0.2,0.8,0.3,1.2,0.4c-0.1-0.3-0.3-0.7-0.4-1c0,0,0,0,0,0c-0.6-0.2-0.9-0.5-1.3-0.9
					c-0.4-0.3-0.8-0.6-1-1.1c0,0,0,0,0,0c0.4,0.7,1.3,1.4,2.1,1.6c0-0.1-0.1-0.1-0.1-0.2c-0.2-0.5-0.6-1.1-0.8-1.6
					c-0.5-0.2-0.7-0.9-1.1-1.3c0,0,0,0,0,0C65,4,65.3,4.3,65.6,4.5C65.3,4,65.1,3.4,65,2.9c0,0,0,0,0,0c0.1,0.8,0.7,1.5,1.1,2.2
					c0.1-0.1,0.2-0.2,0.3-0.3c0.1-0.2,0.2-0.3,0.2-0.5c0,0,0,0,0,0c-0.1,0.4-0.2,0.8-0.4,1.1c0,0,0,0,0,0c0.2,0.3,0.3,0.6,0.5,0.9
					c0,0,0,0,0.1,0c0.4-0.1,0.6-0.5,0.8-0.8c0,0,0,0,0,0c-0.1,0.2-0.1,0.4-0.2,0.6c-0.1,0.2-0.2,0.4-0.4,0.6c0,0,0,0,0,0
					c0.1,0.3,0.3,0.6,0.4,0.9c0.8-0.2,1.5-0.9,1.5-1.7c0,0,0,0,0,0c0.1,0.8-0.5,1.8-1.3,2c0.1,0.2,0.2,0.4,0.3,0.6
					c0.1,0.2,0.2,0.4,0.3,0.6c0.7-0.5,1.5-1.7,1.4-2.6c0,0,0,0,0,0c0,0.7-0.1,1.2-0.4,1.8c-0.2,0.4-0.5,0.9-0.9,1.2
					c0.1,0.2,0.1,0.4,0.2,0.6c0,0,0.1,0,0.1,0c0.2-0.1,0.4-0.3,0.5-0.4c0.3-0.3,0.7-0.7,0.7-1.1c0,0,0,0,0,0
					c-0.2,0.4-0.3,0.9-0.6,1.3c-0.2,0.2-0.4,0.5-0.7,0.6c0.1,0.3,0.1,0.6,0.1,0.8c0.3-0.1,0.6-0.2,0.9-0.4c0.9-0.7,2.2-3.4-0.7-5.6
					c-0.7-0.5-1.5-1-2.2-1.4c-0.5-0.3-1.4-0.8-1.7-1.4c-1,1.6-1.7,3.8-1.8,5.7C63,10.2,65,11.2,67,11.2C67.4,11.2,67.7,11.2,68,11.1
					z M88.5,10.3c0.1,0,0.6,0.1,1.2,0.1l2-1.8l-1.5,1.8c0.6,0.1,1.2,0,1.8-0.1l1.5-1.4l-1.1,1.4c1-0.1,1.9-0.3,2.6-0.6
					c-0.2,0.1-1.7,0.7-3.3,1.1l1.8,0.6l-2.5-0.5c-0.8,0.2-1.5,0.2-2,0.2c1,0.7,2.7,1.7,4.1,1.4c2-0.5,2.8-3.1,2.8-3.1
					s-1.2-1.3-3.8-1.6C90,7.6,88.8,9.7,88.5,10.3z M84.9,10.8l-1.6-4.1l1.9,3.3c0.5-0.8,0.7-1.8,0.9-2.8l-1.3-3.1l1.5,2.4
					c0.4-1.5,0.6-3.1,0.5-4.4c0.1,0.4,0.2,3-0.1,5.6l2-2.5l-2.1,3.6c-0.2,1.2-0.5,2.4-0.9,3.2c1.6-1.1,4.1-3.2,4.4-5.4
					c0.4-3.3-3.1-6-3.1-6s-2.6,1.1-4.5,5c-1.6,3.3,0.9,6.2,1.8,7C84.2,12.4,84.5,11.7,84.9,10.8z M119.2,26.6l0.2,1.3l-0.3-1
					c-0.3,0.8-0.6,1.5-0.7,1.6c0.2-0.4,0.3-0.8,0.4-1.3l-0.7,0.5l0.8-0.7c0.1-0.3,0.2-0.6,0.1-0.9l-1,0.7l1-1c0-0.3,0-0.5,0-0.6
					c-0.3,0.1-1.4,0.6-1.4,1.8c0.1,1.4,0.7,2,0.7,2s1.3-0.3,1.7-1.3c0.2-0.7-0.3-1.6-0.6-2.1C119.4,25.8,119.3,26.2,119.2,26.6z
					 M123.1,26.7c-0.6-1.1-1.9-1.1-2.5-1c-0.7-0.9-2.2-1.6-3.2-1.3c-1.4,0.4-1.9,1.7-2.1,2.8l0.4-0.1c0-1,0.7-2.1,1.8-2.4
					c1-0.3,2.3,0.3,2.9,1.1l0,0c0,0.1,0.2,0.3,0.4,0.6c0,0,0,0,0,0.1l0,0l0,0l1.7,0.4l-1.5-0.1c0.1,0.4,0.4,0.6,0.8,0.9l1.3,0.3
					l-1.1,0c0.4,0.5,0.9,0.9,1.3,1.2c-0.2-0.1-1-0.6-1.8-1.3l0.4,1.2l-0.7-1.5c-0.4-0.3-0.7-0.7-0.9-1c0,0.8,0.1,2.1,0.8,2.7
					c1,0.9,2.7,0.3,2.7,0.3S123.9,28.2,123.1,26.7z M120,24.5c0.4-0.3,0.6-1,0.6-1.5c0.1,0.7-0.1,1.1-0.3,1.3
					c0.5-0.3,0.9-0.5,0.9-1.2c0,0.4-0.1,0.7-0.2,0.8c0.1-0.1,0.2-0.1,0.3-0.2c0.1,0,0.1-0.1,0.2-0.1c0.1-0.2,0.2-0.4,0.2-0.6
					c0,0.2,0,0.4,0,0.5c0.4-0.4,0.7-0.6,0.7-0.6s-0.5,0.6-0.9,1c0.1,0,0.4-0.1,0.7,0.1c-0.7-0.2-1.2,0.3-1.7,0.6c0.2,0,0.5,0,1,0.3
					c-0.4-0.2-1-0.3-1.3-0.1l-0.1,0.1c0.4,0.4,1.2,0.4,1.8-0.1c0.6-0.5,0.8-1.1,0.7-1.7c0-0.1,0.1-0.3,0.1-0.3
					c-0.1,0.1-0.3,0.1-0.5,0c-0.5-0.3-1.2-0.1-1.6,0.2c-0.6,0.4-0.9,1.1-0.6,1.6C119.7,24.6,119.8,24.6,120,24.5z M50.1,15.6
					c-0.1,0-0.4,0.2-0.8,0.4l-0.7,1.9l0.3-1.7c-0.4,0.1-0.8,0.4-1.1,0.7l-0.5,1.5l0.2-1.3c-0.6,0.4-1.1,0.9-1.5,1.4
					c0.1-0.2,0.8-1.1,1.7-1.9l-1.4,0.3l1.8-0.6c0.4-0.4,0.9-0.7,1.2-0.9c-0.9-0.1-2.4-0.1-3.1,0.6c-1.1,1-0.7,3-0.7,3
					s1.2,0.4,3.1-0.4C50.2,17.9,50.2,16.1,50.1,15.6z M48.6,13.9c-0.3-0.8-1-2.6-2.9-2.7C43.1,11,41.7,12,41.7,12s0.4,2.6,2.1,3.4
					c1.2,0.5,3-0.1,4-0.6c-0.5,0-1.2-0.2-1.9-0.5l-2.5,0l1.8-0.3c-1.4-0.6-2.7-1.4-2.9-1.6c0.6,0.4,1.5,0.8,2.4,1l-0.8-1.5l1.2,1.6
					c0.6,0.2,1.2,0.4,1.7,0.4L45.9,12l1.6,2h0l0,0c0,0,0.1,0,0.1,0c0.5,0.1,0.9,0.1,1,0.1l0,0c1.5,0.4,3,1.7,3.3,3.2
					c0.2,1.7-0.8,3.3-2.1,3.9l0.1,0.6c1.3-0.9,2.6-2.4,2.3-4.5C52,15.7,50.2,14.3,48.6,13.9z M50,14.2l0-0.2c0.1-0.7-0.4-1.4-1-1.7
					c0.7,0.4,1,0.8,1,1.1c0.1-0.9,0.5-1.9-0.2-2.7c0.4,0.3,0.5,0.7,0.5,0.9c0.2-0.7,0.7-1.8,0.7-1.8s-0.1,0.5-0.3,1.3
					c0.1-0.1,0.3-0.3,0.7-0.4c-0.3,0.1-0.6,0.4-0.7,0.6c0,0.1,0,0.2-0.1,0.3c0,0.2-0.1,0.4-0.1,0.5c0.1-0.2,0.4-0.5,1-0.8
					c-0.9,0.5-1,1.2-1.1,2c0.2-0.3,0.6-0.8,1.6-1.2c-0.7,0.3-1.4,1-1.6,1.7c0,0.2,0,0.3,0,0.4c0.8,0,1.6-0.8,1.8-1.9
					c0.2-0.9,0-1.8-0.8-2.3c-0.2-0.1-0.3-0.4-0.2-0.6c0,0-0.1,0.3-0.3,0.3c-1,0.2-1.6,0.9-1.9,2C48.8,12.9,49.3,14,50,14.2z
					 M73.7,28.5L73.7,28.5c0.4,0.3,1.1,0,1.5-0.6c0.4-0.6,0.4-1.2,0.1-1.8c-0.1-0.1,0-0.3,0-0.3C75.2,25.9,75,26,74.8,26
					c-0.6-0.1-1.1,0.2-1.4,0.7C73,27.3,73,28,73.4,28.4c0,0,0.1-0.1,0.2-0.2c0.2-0.4,0.2-1.1,0-1.5c0.3,0.6,0.3,1,0.2,1.3
					c0.4-0.4,0.6-0.8,0.4-1.4c0.2,0.4,0.1,0.7,0.1,0.8c0.1-0.1,0.2-0.2,0.2-0.3c0.1-0.1,0.1-0.1,0.1-0.2c0.1-0.2,0-0.5,0-0.6
					c0.1,0.2,0.1,0.4,0.1,0.5c0.3-0.5,0.4-0.8,0.4-0.8s-0.3,0.7-0.5,1.2c0.1-0.1,0.4-0.2,0.7-0.2c-0.7,0-1,0.7-1.4,1.1
					c0.2-0.1,0.5-0.2,1,0C74.5,28,73.9,28.1,73.7,28.5z M73,29.5c-0.5,0.6-0.4,1.6,0,2.2c-0.5-0.8-0.5-1.3-0.4-1.7
					c-0.6,0.8-1.5,1.6-1.3,2.7c-0.2-0.5-0.1-0.9,0-1.2c-0.6,0.6-1.7,1.4-1.7,1.4s0.4-0.4,1.1-1c-0.2,0.1-0.5,0.1-0.9,0
					c0.3,0.1,0.8,0,1.1-0.2c0.1-0.1,0.1-0.1,0.2-0.3c0.1-0.1,0.3-0.3,0.4-0.5c-0.3,0.2-0.7,0.3-1.4,0.2c1.1,0.1,1.7-0.5,2.2-1.3
					c-0.4,0.2-1,0.5-2.2,0.2c0.8,0.1,2-0.2,2.5-0.7c0.1-0.2,0.2-0.3,0.2-0.4c-0.8-0.4-2-0.1-2.8,0.8c-0.6,0.7-1,1.8-0.6,2.7
					c0.1,0.2,0.1,0.5-0.1,0.7c0,0,0.3-0.2,0.5-0.1c1.1,0.3,2.1,0.1,3-0.9c0.8-1,1-2.2,0.4-2.9L73,29.5z M80.7,32.9
					c0.1-1.7-0.5-3.1-2.1-4.1c-1.6-0.9-3.5-0.8-4.4,0.3l0.3,0.1c1,0.5,2.4,0.1,3.3-0.6c-1,0.9-1.8,1.1-2.3,1.1
					c1.4,0.7,2.8,1.8,4.4,1.1c-0.6,0.4-1.3,0.4-1.7,0.3c1,0.7,2.5,2.1,2.5,2.1S80,32.7,78.8,32c0.1,0.3,0.3,0.7,0.2,1.3
					c0-0.5-0.3-1.1-0.6-1.5c-0.1-0.1-0.2-0.1-0.4-0.3c-0.2-0.1-0.5-0.3-0.8-0.5c0.3,0.3,0.7,0.9,0.7,2c-0.2-1.7-1.3-2.3-2.5-2.8
					c0.4,0.5,1,1.3,1,3.1c-0.1-1.2-0.8-2.8-1.8-3.4c-0.3-0.1-0.5-0.2-0.7-0.2c-0.4,1.3,0.4,2.9,2,3.8c1.3,0.7,2.9,1,4.1,0.1
					c0.3-0.2,0.8-0.3,1.1-0.1C81.1,33.5,80.7,33.2,80.7,32.9z"/>
			</g>
		</g>
		<g id="XMLID_340_">
			<g id="XMLID_268_">
				<path id="XMLID_269_" class="st2" d="M107.2,24.2c-4.1,0-7.4,3.3-7.4,7.4c0,4.1,3.3,7.4,7.4,7.4c4.1,0,7.4-3.3,7.4-7.4
					C114.6,27.6,111.3,24.2,107.2,24.2z M107.2,36c-2.4,0-4.4-2-4.4-4.4c0-2.4,2-4.4,4.4-4.4c2.4,0,4.4,2,4.4,4.4
					C111.6,34.1,109.6,36,107.2,36z M107.2,28.5c-1.8,0-3.2,1.4-3.2,3.2c0,1.8,1.4,3.2,3.2,3.2c1.8,0,3.2-1.4,3.2-3.2
					C110.4,29.9,108.9,28.5,107.2,28.5z M54.5,24.2c-4.1,0-7.4,3.3-7.4,7.4c0,4.1,3.3,7.4,7.4,7.4c4.1,0,7.4-3.3,7.4-7.4
					C61.9,27.6,58.6,24.2,54.5,24.2z M54.5,36c-2.4,0-4.4-2-4.4-4.4c0-2.4,2-4.4,4.4-4.4c2.4,0,4.4,2,4.4,4.4
					C58.9,34.1,56.9,36,54.5,36z M54.5,28.5c-1.8,0-3.2,1.4-3.2,3.2c0,1.8,1.4,3.2,3.2,3.2c1.8,0,3.2-1.4,3.2-3.2
					C57.7,29.9,56.3,28.5,54.5,28.5z M78.1,15.9c-0.4,0-0.6,0.3-0.6,0.6s0.3,0.6,0.6,0.6c0.4,0,0.6-0.3,0.6-0.6S78.4,15.9,78.1,15.9
					z M108.7,21.7c0.4,0,0.6-0.3,0.6-0.6c0-0.4-0.3-0.6-0.6-0.6c-0.4,0-0.6,0.3-0.6,0.6C108,21.4,108.3,21.7,108.7,21.7z M53.2,22.3
					c0.4,0,0.6-0.3,0.6-0.6c0-0.4-0.3-0.6-0.6-0.6c-0.4,0-0.6,0.3-0.6,0.6C52.5,22,52.8,22.3,53.2,22.3z M54.3,13.2
					c0.4,0,0.6-0.3,0.6-0.6c0-0.4-0.3-0.6-0.6-0.6c-0.4,0-0.6,0.3-0.6,0.6C53.7,13,53.9,13.2,54.3,13.2z M60.5,24
					c0.4,0,0.6-0.3,0.6-0.6c0-0.4-0.3-0.6-0.6-0.6c-0.4,0-0.6,0.3-0.6,0.6C59.9,23.7,60.2,24,60.5,24z M114.3,23.9
					c-0.4,0-0.6,0.3-0.6,0.6c0,0.4,0.3,0.6,0.6,0.6c0.4,0,0.6-0.3,0.6-0.6C114.9,24.1,114.7,23.9,114.3,23.9z M80.3,11.5
					c0.4,0,0.6-0.3,0.6-0.6c0-0.4-0.3-0.6-0.6-0.6c-0.4,0-0.6,0.3-0.6,0.6C79.7,11.3,80,11.5,80.3,11.5z M77.5,25.6
					c-0.4,0-0.6,0.3-0.6,0.6c0,0.4,0.3,0.6,0.6,0.6s0.6-0.3,0.6-0.6C78.1,25.8,77.9,25.6,77.5,25.6z M80.9,26.9c-0.6,0-1,0.5-1,1
					c0,0.6,0.5,1,1,1c0.6,0,1-0.5,1-1C81.9,27.3,81.5,26.9,80.9,26.9z M65.6,12.7c-0.6,0-1,0.5-1,1c0,0.6,0.5,1,1,1c0.6,0,1-0.5,1-1
					C66.6,13.2,66.2,12.7,65.6,12.7z M70.7,12.4c-0.4,0-0.8,0.4-0.8,0.8c0,0.4,0.4,0.8,0.8,0.8c0.4,0,0.8-0.4,0.8-0.8
					C71.5,12.7,71.2,12.4,70.7,12.4z M88.8,12.2c-0.6,0-1,0.5-1,1c0,0.6,0.5,1,1,1c0.6,0,1-0.5,1-1C89.8,12.6,89.4,12.2,88.8,12.2z"
					/>
			</g>
		</g>
		<g id="XMLID_31_">
			<g id="XMLID_664_">
				<path id="XMLID_665_" class="st0" d="M63.2,24.8L63.2,24.8c0,0.5,0.3,0.6,0.5,0.6c0.1,0,0.5-0.1,0.7-0.2L64,25.1
					c0.2-0.1,0.4-0.1,0.5-0.1c0-0.2,0-0.3-0.1-0.5c0,0.3-0.6,0.6-0.5,0.2c0-0.1,0-0.2,0.1-0.2c0-0.1,0-0.2-0.1-0.3
					C63.7,24,62.9,24.1,63.2,24.8z M66.7,25.8c-0.1,0.6-0.6,1.1-1,1.3c-0.6,0.7-1.4,0.9-2,1c0.6,1,3.1,0.6,3.8-0.5
					c0.7-1.2,0.4-2.2,0.1-2.5C67.5,25.2,67.1,25.8,66.7,25.8z M64.7,24.9c0,0.3-0.3,1-0.6,1.1c0.3,0,0.5,0,0.6-0.1
					c0.4-0.3,0.5-0.5,0.5-1c0-0.6-0.3-1-0.5-1.2c-0.4-0.3-0.8-0.3-1.2-0.1C64.3,23.7,64.8,24.3,64.7,24.9z M65.8,26.6
					c0.4-0.3,0.6-0.7,0.7-1.3c0.1-0.6-0.1-1.1-0.4-1.4c-0.4-0.6-1.2-0.7-1.8-0.6c0.6,0.2,1.3,0.9,1.2,1.7c0,0.7-0.3,1.2-1,1.4
					c-0.5,0.1-1-0.1-1.4-0.2c0.3,0.3,0.9,0.7,1.4,0.7C64.8,26.9,65.4,26.8,65.8,26.6z M63.1,26.6c-0.3-0.3-0.6-0.6-0.7-1.1
					c-0.1-0.5,0-1.5,0.5-1.8c0.2-0.3,0.3-0.4,0.8-0.4c0.7-0.5,1.5-0.3,1.9-0.1c0.6,0.3,1.3,1.2,1.1,2.3c0.3-0.1,0.7-0.7,0.8-1.3
					c0-0.5-0.2-1-0.8-1.5c-1.3-1.4-3.8-0.1-3.8,1.1c-0.4,0.2-0.9,0.8-0.9,2c0,1.1,0.8,1.9,1.3,2c0.5,0.1,1.3-0.2,1.6-0.4
					C64.3,27.1,63.7,27,63.1,26.6z M115.1,17c0,0.2,0,0.7,0,1l0.6-1.6C115.3,16.3,115.1,16.6,115.1,17z M116,17.5
					c0.1,0,0.2,0.1,0.3,0.2c0.1,0,0.3,0,0.4,0c0.3-0.2-0.8-1-0.9-0.9c-0.3,0.2-0.2,1.1-0.1,1.3c0.2,0.1,0.4,0.1,0.7,0.1
					C115.8,18.1,115.5,17.4,116,17.5z M113.8,20.9c-0.8-0.2-1.4-1.1-1.5-1.6c-0.7-1-0.9-2.1-0.8-2.9c-1.5,0.6-1.6,4-0.2,5.2
					c1.4,1.2,2.8,1,3.4,0.7C114.4,22.2,113.7,21.4,113.8,20.9z M114.1,17.4c-0.1,0.3-0.1,0.6,0,0.9c0.3,0.6,0.6,0.7,1.2,0.9
					c0.8,0.2,1.4-0.1,1.8-0.4c0.6-0.5,0.5-1,0.5-1.6c-0.3,1.1-1.2,1.5-2.1,1.3C115.1,18.4,114.2,17.9,114.1,17.4z M113,17.7
					c-0.1,0.4-0.2,1.2,0.1,1.7c0.4,0.7,0.8,1,1.5,1.3c0.8,0.2,1.5,0.1,2-0.2c0.9-0.4,1.2-1.5,1.2-2.2c-0.4,0.8-1.5,1.5-2.5,1.2
					c-0.9-0.2-1.6-0.7-1.6-1.7c0-0.6,0.3-1.3,0.6-1.8C113.8,16.3,113.2,17.1,113,17.7z M117.6,16.4c-0.2-0.7-0.9-1.5-2.4-1.7
					c-1.5-0.3-2.8,0.6-3,1.3c-0.2,0.6-0.1,1.7,0.2,2.2c0.2-0.8,0.6-1.7,1.2-2.3c0.4-0.4,1-0.6,1.6-0.6
					C115.9,15.3,117.2,15.7,117.6,16.4c0.3,0.4,0.4,0.6,0.4,1.2c0.5,1,0,2.1-0.4,2.6c-0.5,0.7-1.9,1.4-3.3,0.8
					c0,0.5,0.8,1.1,1.6,1.4c0.6,0.1,1.4-0.1,2.3-0.7C120.3,20.4,119.1,16.7,117.6,16.4z M84.8,20.6c0.1,0.2,0.3,0.3,0.4,0.5
					c0.3-1.1-0.2-2.1-0.9-2.3c-0.7-0.1-0.9,0-1.2,0c0.4,0.2,0.8,0.5,1.1,0.8C84.5,19.9,84.6,20.3,84.8,20.6z M83.2,21.7
					c-0.2,0-0.5,0-0.7,0l0,0c-0.3,0.1-0.6,0.3-0.9,0.5c-0.4,0.2-1.3,0.5-1.3,0.9c0,0.1,0.1,0.3,0.1,0.4c0,0.4,0.1,0.7,0.4,1
					c0-0.2,0.1-0.5,0.4-1C81.5,22.7,82.7,22,83.2,21.7z M85.3,21.6c-0.1-0.2-0.3-0.5-0.5-0.7c-0.3-0.3-0.7-0.7-1.1-0.9l0,0l0,0
					c-0.6-0.3-1.2,0.2-1.8,0.7c0.3-0.1,0.6-0.2,0.9-0.2c1.6-0.2,2.5,1.3,2.2,2.6c-0.1,0.4-0.3,0.8-0.5,1.1c0.4-0.3,0.7-0.6,0.9-0.8
					c0.1-0.4,0.2-0.8,0-1.1C85.3,22.1,85.3,21.9,85.3,21.6z M82.9,20.8c-0.5,0-1,0.1-1.5,0.4c-0.5,0.2-0.7,0.8-0.9,1.3
					c0.2-0.2,0.6-0.3,1.1-0.5c0.3-0.1,0.6-0.4,0.9-0.5l0,0l0,0c0.9-0.3,1.9,0.4,2.4,0.8C84.7,21.3,83.9,20.8,82.9,20.8z M82.9,25.3
					c-0.3,0-0.6-0.1-0.9-0.1c-1-0.1-1.8-0.7-1.9-1.7c0-0.1-0.1-0.3-0.1-0.4c0.1-0.8,0.5-1.8,1.2-2.2c0.4-0.2,0.7-0.6,1-0.9
					c-0.1,0-0.1,0-0.2,0c-0.5,0-0.9,0.4-1.4,0.8c-0.4,0.5-1.2,1.4-1.1,2.1c0,0.6,0.1,1.1,0.3,1.4c-0.3,1.5,1.2,0.9,1.5,1.2
					c0.6,0.7,2,0.1,2.9-0.5c0.2-0.1,0.5-0.5,0.8-1C84.5,24.6,83.6,25.3,82.9,25.3L82.9,25.3z M80.4,20.5c0.5-0.5,1.2-0.7,1.7-0.7
					c0.2,0,0.3,0,0.5,0.1c0.4-0.2,0.8-0.3,1.2-0.1c-0.8-0.7-1.5-1.3-2.6-1.3c-1.1,0-2.9,1-2.8,3.1c0.1,1.3-1,1.6-0.4,2.7
					c0.1,0.3,0.9,0.8,1.7,0.5c-0.1-0.3-0.4-1.2-0.5-1.6C79.2,22.4,80.1,20.7,80.4,20.5z M72.8,7.5c-0.2-0.2-0.4-0.4-0.5-0.6
					c-0.3,1.3,0.4,2.6,1.3,2.7c0.9,0.1,1.1-0.1,1.5-0.1C74.6,9.3,74,9,73.7,8.7C73.3,8.3,73.1,7.9,72.8,7.5z M74.6,6
					c0.3,0,0.6,0,0.8-0.1l0,0c0.4-0.1,0.7-0.4,1-0.6C77.1,5,78,4.6,78.1,4.1c0-0.2-0.2-0.3-0.2-0.5c-0.1-0.5-0.2-0.9-0.6-1.1
					c0,0.2-0.1,0.6-0.4,1.3C76.6,4.6,75.3,5.6,74.6,6z M72.9,7.2c0.4,0.4,0.8,0.8,1.4,1l0,0l0,0c0.7,0.3,1.4-0.3,2.1-1
					c-0.4,0.2-0.7,0.3-1.1,0.3c-1.9,0.3-3.2-1.4-2.9-3c0.1-0.5,0.3-0.9,0.5-1.4c-0.4,0.4-0.8,0.8-1,1.1c-0.1,0.5-0.2,1,0.1,1.3
					c0.2,0.2,0.2,0.5,0.3,0.9C72.4,6.6,72.6,6.9,72.9,7.2z M75.2,7.1c0.6-0.1,1.2-0.2,1.8-0.6c0.6-0.3,0.8-1,1-1.7
					c-0.3,0.3-0.7,0.5-1.2,0.7c-0.4,0.2-0.7,0.5-1.1,0.6l0,0l0,0c-1.1,0.4-2.3-0.3-2.9-0.8C72.9,6.6,74,7.2,75.2,7.1z M74.7,1.6
					L74.7,1.6c0.4,0,0.7,0,1.1,0.1c1.2,0,2.3,0.7,2.4,1.9c0,0.2,0.2,0.4,0.2,0.5c-0.1,0.9-0.4,2.2-1.3,2.7C76.7,7.1,76.4,7.7,76,8
					c0.1,0,0.2,0,0.2,0c0.5-0.1,1.1-0.5,1.6-1.1c0.5-0.6,1.3-1.8,1.2-2.7c-0.1-0.7-0.3-1.3-0.5-1.7c0.2-1.9-1.6-1-1.9-1.3
					c-0.8-0.8-2.4,0-3.4,0.8c-0.2,0.1-0.6,0.7-0.9,1.3C72.9,2.6,73.9,1.7,74.7,1.6z M80.5,5.9c-0.2-1.6,1.1-2,0.3-3.3
					c-0.2-0.3-1.2-0.9-2.1-0.4c0.2,0.4,0.6,1.4,0.7,1.9c0.1,0.7-0.9,2.8-1.2,3.1c-0.5,0.6-1.4,0.9-2,1c-0.2,0-0.4,0-0.6,0
					c-0.5,0.3-0.9,0.4-1.5,0.3c1,0.8,1.9,1.4,3.3,1.4C78.8,9.9,80.9,8.5,80.5,5.9z M57.9,6.8c0.3-0.3,0.5-0.6,0.6-0.9
					c-0.1-0.5-0.4-1.2-0.6-1.4C58,4.6,58,4.8,57.9,5c-0.2,0.8-0.5,1.5-1.1,2.1c0,0-0.1,0.1-0.1,0.1c0,0.1,0,0.1-0.1,0.2
					c0.2-0.1,0.5-0.1,0.7-0.2C57.6,7.1,57.8,6.9,57.9,6.8z M53.6,5.8c-0.1-0.2-0.2-0.4-0.2-0.6c-0.1,0.7-0.1,1.4,0.5,1.9
					c0.3,0.3,0.6,0.3,0.9,0.3c0.2-0.1,0.4-0.1,0.6-0.1c-0.2,0-0.3-0.1-0.4-0.2c-0.3-0.1-0.5-0.4-0.8-0.5C54,6.5,53.8,6.2,53.6,5.8z
					 M53.9,4.7l0.6-1.1C54.3,3.8,54,4.4,53.9,4.7z M56.7,6.3C57,6,57.3,5.5,57.5,5c0.1-0.3,0.1-0.6,0.1-0.9c-0.2-0.7-2-0.9-2.5-0.7
					c-0.3,0.2-0.5,0.6-0.7,0.9c0.4-0.1,1.9-0.3,2,0.4c0.1,0.6-1,1-1.4,1.1c-0.2,0-0.4-0.1-0.4-0.3c-0.1-0.2,0.4-0.9,0.5-1
					c-0.1,0-0.6,0.1-0.8,0.2C54.1,5,54,5.4,54.1,5.7c0.2,0.2,0.3,0.3,0.5,0.5c0.5,0.4,1.1,0.6,1.7,0.7C56.4,6.7,56.6,6.5,56.7,6.3z
					 M55.5,4.4C55.3,4.7,55.1,5,55,5.3c0.2,0,1.1-0.3,1.1-0.7l0,0c0,0,0,0,0-0.1h0l0,0C56,4.6,55.5,4.4,55.5,4.4z M58.8,7.8
					c-0.4,0.5-0.8,0.8-1.3,1.1c0,0,0,0,0,0C57.3,9,57.2,9,57,9.1c-0.2,0.1-0.4,0.2-0.6,0.3c-1.1,0.3-2-0.1-3-0.5
					c-0.1,0-0.1-0.1-0.1-0.2c-0.1-0.1-0.3-0.2-0.4-0.3c0.1,0.7,0.7,2,2.4,2.2C56.4,10.7,58.3,9.3,58.8,7.8z M53.6,8.6
					c1,0.2,2,0.6,3,0.1c0.4-0.2,0.9-0.3,1.3-0.4c0.4-0.3,0.8-0.7,1-0.9c0-0.3,0-0.6-0.1-0.9c-0.1,0.4-0.4,0.7-0.8,1
					c-0.3,0.2-0.8,0.3-1.1,0.4c-0.2,0-0.4,0.1-0.6,0.1c-0.2,0-0.4,0-0.6,0C55.3,8.2,55,8.2,54.8,8c-0.3,0.1-0.7-0.1-0.9-0.2
					c-0.3-0.2-0.7-0.5-0.6-0.9c-0.1-0.1-0.1-0.2-0.1-0.3c-0.2-0.9-0.1-1.5,0.1-2.3c0.1-0.2,0.2-0.6,0.5-0.9
					c-0.6,0.1-1.5,0.8-1.6,1.5c-0.2,0.8-0.2,1.6,0.3,2C52.5,7.7,52.9,8.2,53.6,8.6z M57.8,3.7c0.5,0.5,0.9,1.3,1.1,2
					c0.1,0.4,0.3,1.3,0.2,1.9c0.7-0.8,0.8-2.8,0.4-3.7c-0.5-1-2-1.9-3.2-1.6c-0.2,0-1.5,0.4-2.1,1.1C54.6,3.2,55.4,3,56,3
					C56.6,3,57.3,3.2,57.8,3.7z M56.5,10.6c0.6,0.8,2.5,0.6,3.6-1.2c0.2-0.3,0.5-1.5,0.1-2.3c1.3-1.2,0.5-2.2-0.4-2.5
					C60.4,6.6,58.8,9.4,56.5,10.6z M61.4,14.9c0.1-0.2,0.2-0.5,0.1-0.7c-0.6-0.6-1.2-0.8-1.8-0.8c-0.4,0-0.9,0.2-1.2,0.5
					c-0.4,0.4-0.4,0.9-0.4,1.5c0.6,0.3,0.6,0.4,1.3,0.5c-0.1-0.2-0.4-0.8-0.4-1c0-0.4,0-0.8,0.6-0.9C60.5,13.9,61.2,14.5,61.4,14.9z
					 M58.4,16.8c0.5,0.5,0.9,0.6,1.6,0.6c0.9,0,1.5-0.6,1.8-1c0.4-0.7,0.3-1.2,0-1.9c0,1.3-0.8,2.1-1.9,2.1c-0.4,0-1.6-0.3-1.8-0.7
					C58.1,16.2,58.2,16.5,58.4,16.8z M60.6,15.4c0.1,0,0.3-0.1,0.4-0.1c0.3-0.3-1.2-0.8-1.3-0.7c-0.3,0.3,0.2,1.3,0.3,1.5
					c0.3,0,0.5,0,0.8-0.2c-0.5,0-1.1-0.6-0.5-0.6C60.3,15.3,60.5,15.4,60.6,15.4z M64,19.3c1.9-2.3-0.5-6-2.4-5.8
					c-0.4-0.7-1.5-1.3-3.2-1.1c-1.8,0.2-2.9,1.5-2.9,2.4c0,0.8,0.5,2,0.9,2.4l0,0c0-1,0.1-2.1,0.6-2.9c0.4-0.6,0.9-1,1.6-1.2
					c0.7-0.2,2.3-0.2,2.9,0.5c0.5,0.2,0.7,0.5,0.8,1.2c0.8,0.9,0.7,2.4,0.5,3c-0.3,0.9-1.7,2.2-3.4,2c0.1,0.5,1.2,1,2.2,1.1
					C62.4,20.8,63.3,20.3,64,19.3z M56.9,16.5c0,0.5,0.2,1.4,0.6,1.9c0.6,0.6,1.3,0.9,2.1,0.9c1,0,1.7-0.4,2.2-0.9
					c0.9-0.8,0.8-2,0.6-2.9c-0.1,1-1.1,2.1-2.4,2.2c-1,0.1-2-0.3-2.3-1.3c-0.2-0.7-0.1-1.6,0.1-2.3C57.4,14.7,57,15.7,56.9,16.5z
					 M59,19.7c-1,0-1.9-0.7-2.2-1.3c-1.1-0.8-1.7-2-1.8-3c-1.4,1.1-0.4,5,1.5,5.8c1.9,0.8,3.5,0.2,4-0.3C60,21,59.1,20.4,59,19.7z
					 M94.7,18.5c0.9-0.1,1-0.4,1.8-0.7c0.1-0.9,0-1.5-0.5-2.1c-0.4-0.4-1.2-0.7-1.7-0.7c-0.8,0-1.7,0.2-2.5,1
					c-0.1,0.3,0,0.7,0.2,0.9c0.3-0.6,1.2-1.4,2.5-1.2c0.7,0.1,0.8,0.7,0.8,1.3C95.2,17.3,94.9,18.1,94.7,18.5z M91.4,18.9
					c0.4,0.6,1.2,1.4,2.5,1.5c1,0,1.6-0.1,2.3-0.8c0.3-0.3,0.4-0.8,0.4-1.3c-0.3,0.7-1.9,1.1-2.6,1c-1.5-0.1-2.7-1.1-2.6-2.9
					C91,17.2,90.8,17.9,91.4,18.9z M93,18.4c0.3,0.2,0.7,0.2,1,0.2c0.1-0.3,0.9-1.7,0.4-2.1c-0.1-0.1-2.3,0.5-1.9,0.9
					c0.1,0.1,0.4,0.1,0.5,0.2c0.1-0.1,0.3-0.2,0.5-0.2C94.5,17.5,93.6,18.4,93,18.4z M94.6,23.7c-2.4,0.2-4.2-1.5-4.7-2.8
					c-0.3-0.9-0.5-2.9,0.7-4.2c0.1-1,0.4-1.3,1.1-1.6c0.8-1,3.1-1,4.1-0.7c1,0.3,1.7,0.9,2.2,1.7c0.7,1.2,0.9,2.7,0.9,4.1l0,0
					c0.7-0.6,1.3-2.2,1.3-3.3c0-1.3-1.5-3.1-4-3.4c-2.5-0.3-3.9,0.6-4.5,1.5c-2.6-0.2-6,4.9-3.3,8.1c1,1.4,2.2,2,3.2,2.1
					C92.9,25.1,94.4,24.4,94.6,23.7z M91.4,21.8c0.7,0.6,1.7,1.2,3,1.2c1.2,0,2.1-0.4,2.9-1.2c0.7-0.7,0.9-2,0.9-2.7
					c-0.1-1.1-0.7-2.6-1.3-3.2c0.2,1,0.4,2.2,0.1,3.1c-0.4,1.4-1.7,1.9-3.2,1.8c-1.7-0.1-3.1-1.6-3.3-3.1
					C90.2,19.1,90.1,20.7,91.4,21.8z M100.9,17.7c-0.2,1.3-1,3-2.5,4.1c-0.4,0.9-1.6,1.8-3,1.8c-0.1,0.8-1.5,1.7-2,1.7
					c0.7,0.7,2.8,1.6,5.5,0.4C101.5,24.6,102.9,19.2,100.9,17.7z M74.7,1.9L74.7,1.9c-1.3,0.1-1.9,1.5-2.1,2.6c0,0.2,0,0.3,0,0.5
					c0.3,0.2,0.9,0.7,1.6,1c0.4-0.2,2.1-1.3,2.5-2.3C77,2.8,77.1,2.4,77,2.3c-0.4-0.2-0.8-0.3-1.3-0.4C75.4,1.9,75.1,1.9,74.7,1.9z
					 M73.8,5c0,0-1-0.9,0.1-2.1c0.3-0.4,0.6-0.3,0.7-0.3c-0.5,0.1-1.4,1.3-0.5,2C74,4.7,73.9,5,73.8,5z M74.7,2.9
					C74.7,2.9,74.7,2.9,74.7,2.9c0.1,0,0.1,0.1,0.1,0.1c0.1,0.2,0,0.5-0.1,0.7c-0.1,0.1-0.2,0.2-0.3,0.3C73.7,3.8,74.3,2.8,74.7,2.9
					z M76,2.9c0.2,0.8-0.3,2-1,2c-0.3,0-0.5-0.1-0.7-0.3c0.3-0.1,0.6,0,1-0.6c0.4-0.5,0.2-1.6,0.2-1.6C75.7,2.5,75.9,2.5,76,2.9z
					 M82.9,25.1L82.9,25.1c1.1,0,1.6-1.2,1.9-2c0-0.1,0-0.2,0.1-0.4c-0.2-0.2-0.7-0.7-1.3-0.9c-0.3,0.2-1.8,1-2.1,1.8
					c-0.3,0.7-0.4,1-0.4,1.1c0.3,0.2,0.7,0.3,1,0.4C82.4,25,82.7,25,82.9,25.1z M83,24.3C83,24.2,83,24.2,83,24.3
					c-0.1-0.3,0-0.5,0.1-0.7c0.1-0.1,0.1-0.2,0.2-0.2C83.9,23.6,83.4,24.3,83,24.3C83,24.3,83,24.3,83,24.3z M83.8,23.1
					c0.2,0.3,0.1,0.9-0.1,1.1c-0.2,0.3-0.5,0.3-0.6,0.2c0.4-0.1,0.9-1,0.4-1.3C83.6,23.2,83.7,23.1,83.8,23.1L83.8,23.1z M83,22.6
					c0.2,0,0.4,0.1,0.6,0.3c-0.2,0.1-0.6,0.3-0.7,0.6c-0.1,0.2-0.2,0.5-0.2,0.8c0,0,0,0.1,0,0.1c-0.1-0.1-0.2-0.2-0.3-0.3
					C82.1,23.6,82.5,22.6,83,22.6z M62.7,25.4c0.1,0.3,0.3,0.5,0.7,0.5s0.7-0.1,0.9-0.3c0.2-0.2-0.4,0.2-0.9,0.1
					c-0.3-0.1-0.4-0.3-0.5-0.7c0-0.3,0-0.6,0-0.6S62.6,24.9,62.7,25.4z"/>
			</g>
		</g>
	</g>
</g>
</svg>
